{"title":"All Is Lost (2013) BRRip x264 Ukr sub","uid":9602720,"size":706237447,"categoryP":"video","categoryS":"movies","magnet":"?xt=urn:btih:66c9d09b79e5a56509b3c24b80bd201309872fde&amp;dn=All+Is+Lost+%282013%29+BRRip+x264+Ukr+sub&amp;tr=udp%3A%2F%2Ftracker.openbittorrent.com%3A80&amp;tr=udp%3A%2F%2Fopen.demonii.com%3A1337&amp;tr=udp%3A%2F%2Ftracker.coppersurfer.tk%3A6969&amp;tr=udp%3A%2F%2Fexodus.desync.com%3A6969","seeders":1,"leechers":0,"uploader":"orysia","files":-1,"time":1392150174,"description":"After a collision with a shipping container at sea, a resourceful sailor finds himself, despite all efforts to the contrary, staring his mortality in the face.\n\n\nDirector &amp; Writer: J.C. Chandor\nStars: Robert Redford\n\nFormat                                   : MPEG-4\nFormat profile                           : Base Media\nCodec ID                                 : isom\nFile size                                : 674 MiB\nDuration                                 : 1h 45mn\nOverall bit rate mode                    : Variable\nOverall bit rate                         : 891 Kbps\nMovie name                               : All Is Lost*2013 /antusyrzhuk\nGenre                                    : Drama\nRecorded date                            : 2013\nEncoded date                             : UTC 2014-02-06 08:13:57\nTagged date                              : UTC 2014-02-06 08:13:57\nWriting application                      : Yamb 2.0.0.8 [http://yamb.unite-video.com]\nComment                                  : http://cinemasterpiece(dot)wordpress(dot)com/\n\nVideo\nID                                       : 1\nFormat                                   : AVC\nFormat/Info                              : Advanced Video Codec\nFormat profile                           : &lt;a class=&quot;__cf_email__&quot; href=&quot;/cdn-cgi/l/email-protection&quot; data-cfemail=&quot;276a464e49676b140916&quot;&gt;[email&amp;#160;protected]&lt;/a&gt;&lt;script cf-hash='f9e31' type=&quot;text/javascript&quot;&gt;\n/* &lt;![CDATA[ */!function(){try{var t=&quot;currentScript&quot;in document?document.currentScript:function(){for(var t=document.getElementsByTagName(&quot;script&quot;),e=t.length;e--;)if(t[e].getAttribute(&quot;cf-hash&quot;))return t[e]}();if(t&amp;&amp;t.previousSibling){var e,r,n,i,c=t.previousSibling,a=c.getAttribute(&quot;data-cfemail&quot;);if(a){for(e=&quot;&quot;,r=parseInt(a.substr(0,2),16),n=2;a.length-n;n+=2)i=parseInt(a.substr(n,2),16)^r,e+=String.fromCharCode(i);e=document.createTextNode(e),c.parentNode.replaceChild(e,c)}}}catch(u){}}();/* ]]&gt; */&lt;/script&gt;\nFormat settings, CABAC                   : Yes\nFormat settings, ReFrames                : 5 frames\nCodec ID                                 : avc1\nCodec ID/Info                            : Advanced Video Coding\nDuration                                 : 1h 45mn\nBit rate                                 : 809 Kbps\nMaximum bit rate                         : 5 717 Kbps\nWidth                                    : 800 pixels\nHeight                                   : 424 pixels\nDisplay aspect ratio                     : 1.887\nFrame rate mode                          : Constant\nFrame rate                               : 23.976 fps\nColor space                              : YUV\nChroma subsampling                       : 4:2:0\nBit depth                                : 8 bits\nScan type                                : Progressive\nBits/(Pixel*Frame)                       : 0.099\nStream size                              : 610 MiB (91%)\nWriting library                          : x264 core 142 r2389 956c8d8\nEncoding settings                        : cabac=1 / ref=5 / deblock=1:0:0 / analyse=0x1:0x111 / me=umh / subme=8 / psy=1 / psy_rd=1.00:0.00 / mixed_ref=1 / me_range=16 / chroma_me=1 / trellis=1 / 8x8dct=0 / cqm=0 / deadzone=21,11 / fast_pskip=1 / chroma_qp_offset=-2 / threads=3 / lookahead_threads=1 / sliced_threads=0 / nr=0 / decimate=1 / interlaced=0 / bluray_compat=0 / constrained_intra=0 / bframes=3 / b_pyramid=2 / b_adapt=2 / b_bias=0 / direct=3 / weightb=1 / open_gop=0 / weightp=2 / keyint=240 / keyint_min=23 / scenecut=30 / intra_refresh=0 / rc_lookahead=50 / rc=2pass / mbtree=1 / bitrate=809 / ratetol=1.0 / qcomp=0.60 / qpmin=0 / qpmax=69 / qpstep=4 / cplxblur=20.0 / qblur=0.5 / vbv_maxrate=14000 / vbv_bufsize=14000 / nal_hrd=none / filler=0 / ip_ratio=1.40 / aq=1:1.00\nEncoded date                             : UTC 2014-02-06 08:13:57\nTagged date                              : UTC 2014-02-06 08:14:30\n\nAudio\nID                                       : 2\nFormat                                   : AAC\nFormat/Info                              : Advanced Audio Codec\nFormat profile                           : LC\nCodec ID                                 : 40\nDuration                                 : 1h 45mn\nBit rate mode                            : Variable\nBit rate                                 : 80.0 Kbps\nMaximum bit rate                         : 137 Kbps\nChannel(s)                               : 2 channels\nChannel positions                        : Front: L R\nSampling rate                            : 48.0 KHz\nCompression mode                         : Lossy\nStream size                              : 60.4 MiB (9%)\nLanguage                                 : English\nEncoded date                             : UTC 2014-02-06 08:14:28\nTagged date                              : UTC 2014-02-06 08:14:30\n\nUkrainian subtitles are HARDCODED\n\nScreenshots: &lt;a href=&quot;\nhttp://imageshack.com/a/img542/7299/frcs.png&quot; rel=&quot;nofollow&quot; target=&quot;_NEW&quot;&gt;\nhttp://imageshack.com/a/img542/7299/frcs.png&lt;/a&gt; &lt;a href=&quot;\nhttp://imageshack.com/a/img585/9551/rrsa.png&quot; rel=&quot;nofollow&quot; target=&quot;_NEW&quot;&gt;\nhttp://imageshack.com/a/img585/9551/rrsa.png&lt;/a&gt; &lt;a href=&quot;\nhttp://imageshack.com/a/img32/92/s1pm.png&quot; rel=&quot;nofollow&quot; target=&quot;_NEW&quot;&gt;\nhttp://imageshack.com/a/img32/92/s1pm.png&lt;/a&gt; &lt;a href=&quot;\nhttp://imageshack.com/a/img713/4036/h6ii.png&quot; rel=&quot;nofollow&quot; target=&quot;_NEW&quot;&gt;\nhttp://imageshack.com/a/img713/4036/h6ii.png&lt;/a&gt; &lt;a href=&quot;\nhttp://imageshack.com/a/img585/3245/5efv.png&quot; rel=&quot;nofollow&quot; target=&quot;_NEW&quot;&gt;\nhttp://imageshack.com/a/img585/3245/5efv.png&lt;/a&gt;\n","torrent":{"xt":"urn:btih:66c9d09b79e5a56509b3c24b80bd201309872fde","amp;dn":"All+Is+Lost+%282013%29+BRRip+x264+Ukr+sub","amp;tr":["udp%3A%2F%2Ftracker.openbittorrent.com%3A80","udp%3A%2F%2Fopen.demonii.com%3A1337","udp%3A%2F%2Ftracker.coppersurfer.tk%3A6969","udp%3A%2F%2Fexodus.desync.com%3A6969"],"infoHash":"66c9d09b79e5a56509b3c24b80bd201309872fde","infoHashBuffer":{"type":"Buffer","data":[102,201,208,155,121,229,165,101,9,179,194,75,128,189,32,19,9,135,47,222]},"announce":[],"urlList":[]}}